<svg width="454" height="651" viewBox="0 0 454 651" fill="none" xmlns="http://www.w3.org/2000/svg">
<g clip-path="url(#clip0)">
<path d="M344.215 398.228C369.186 412.479 400.982 403.789 415.232 378.819C429.482 353.849 420.79 322.055 395.819 307.804C370.847 293.553 339.052 302.242 324.802 327.212C310.552 352.182 319.243 383.977 344.215 398.228Z" fill="#D59999"/>
<path d="M299.854 459.247V459.247C288.199 416.83 312.905 372.944 355.216 360.907L356.832 360.447" stroke="#93918E" stroke-width="2" stroke-miterlimit="10"/>
<path d="M361.838 366.455C369.574 370.87 379.426 368.178 383.841 360.441C388.256 352.705 385.563 342.854 377.826 338.439C370.089 334.023 360.238 336.716 355.823 344.452C351.408 352.188 354.101 362.039 361.838 366.455Z" fill="#93918E"/>
<path d="M334.715 413.34C334.715 413.34 357.476 369.259 313.679 350.651Z" fill="#93918E"/>
<path d="M101.04 317.739C125.055 310.129 138.354 284.493 130.744 260.48C123.134 236.467 97.4972 223.169 73.4825 230.78C49.4678 238.39 36.169 264.026 43.7788 288.039C51.3886 312.052 77.0254 325.35 101.04 317.739Z" fill="#BCAF6D"/>
<path d="M153.663 496.281L152.03 470.888C147.815 405.315 127.9 341.715 93.9648 285.447L86.9698 273.849" stroke="#93918E" stroke-width="2" stroke-miterlimit="10"/>
<path d="M91.8423 289.224C100.334 286.533 105.037 277.467 102.346 268.976C99.655 260.485 90.5894 255.783 82.0975 258.474C73.6055 261.165 68.9029 270.23 71.5938 278.721C74.2848 287.213 83.3503 291.915 91.8423 289.224Z" fill="#93918E"/>
<path d="M121.14 368.821C121.14 368.821 104.7 322.015 61.108 341.099Z" fill="#93918E"/>
<path d="M152.389 492.035C152.389 492.035 134.952 397.774 76.2426 410.567" stroke="#93918E" stroke-width="2" stroke-miterlimit="10"/>
<path d="M81.115 425.942C89.6069 423.251 94.3096 414.186 91.6186 405.694C88.9277 397.203 79.8621 392.501 71.3702 395.192C62.8782 397.883 58.1756 406.948 60.8665 415.44C63.5575 423.931 72.623 428.633 81.115 425.942Z" fill="#93918E"/>
<path d="M262.015 177.128C289.163 180.339 313.775 160.933 316.985 133.784C320.196 106.635 300.79 82.0236 273.641 78.8131C246.492 75.6026 221.881 95.0086 218.67 122.157C215.46 149.306 234.866 173.918 262.015 177.128Z" fill="#82A671"/>
<path d="M223.287 506.087L213.044 446.883C197.989 359.863 208.191 270.351 242.441 188.95L267.962 128.293" stroke="#93918E" stroke-width="2" stroke-miterlimit="10"/>
<path d="M266.089 144.132C274.936 145.178 282.956 138.855 284.002 130.009C285.048 121.163 278.724 113.144 269.878 112.097C261.031 111.051 253.012 117.374 251.966 126.22C250.919 135.066 257.243 143.085 266.089 144.132Z" fill="#93918E"/>
<path d="M184.568 411.649C193.415 412.695 201.434 406.372 202.48 397.526C203.526 388.681 197.203 380.661 188.356 379.615C179.51 378.569 171.49 384.892 170.444 393.738C169.398 402.584 175.721 410.603 184.568 411.649Z" fill="#93918E"/>
<path d="M258.308 209.93C258.308 209.93 261.84 160.446 214.253 160.62Z" fill="#93918E"/>
<path d="M223.807 501.684C223.807 501.684 245.416 407.244 186.462 395.632" stroke="#93918E" stroke-width="2" stroke-miterlimit="10"/>
<path d="M279.235 262.928C288.081 263.974 296.101 257.651 297.147 248.805C298.193 239.959 291.87 231.94 283.023 230.894C274.177 229.848 266.157 236.171 265.111 245.017C264.065 253.863 270.388 261.882 279.235 262.928Z" fill="#93918E"/>
<path d="M207.681 344.225C207.681 344.225 208.092 252.452 268.129 254.911" stroke="#93918E" stroke-width="2" stroke-miterlimit="10"/>
<path d="M226.554 634.034C336.662 634.034 425.922 544.779 425.922 434.678H27.186C27.186 544.779 116.446 634.034 226.554 634.034Z" fill="#875C49"/>
<path d="M254.198 369.773C254.198 369.773 257.73 320.29 210.143 320.463Z" fill="#93918E"/>
</g>
<defs>
<clipPath id="clip0">
<rect width="454" height="651" fill="white"/>
</clipPath>
</defs>
</svg>
