<svg width="454" height="651" viewBox="0 0 454 651" fill="none" xmlns="http://www.w3.org/2000/svg">
<g clip-path="url(#clip0)">
<path d="M353.82 395.268C388.547 395.268 416.698 367.118 416.698 332.393C416.698 297.668 388.547 269.518 353.82 269.518C319.093 269.518 290.941 297.668 290.941 332.393C290.941 367.118 319.093 395.268 353.82 395.268Z" fill="#DA0707"/>
<path d="M353.25 446.098L353.765 332.047" stroke="white" stroke-width="2" stroke-miterlimit="10"/>
<path d="M353.765 348.175C362.673 348.175 369.895 340.954 369.895 332.047C369.895 323.139 362.673 315.918 353.765 315.918C344.857 315.918 337.636 323.139 337.636 332.047C337.636 340.954 344.857 348.175 353.765 348.175Z" fill="white"/>
<path d="M353.448 402.339C353.448 402.339 351.367 352.773 304.105 358.32Z" fill="white"/>
<path d="M90.412 269.034C125.139 269.034 153.291 240.884 153.291 206.159C153.291 171.434 125.139 143.284 90.412 143.284C55.685 143.284 27.5331 171.434 27.5331 206.159C27.5331 240.884 55.685 269.034 90.412 269.034Z" fill="#FFDA18"/>
<path d="M86.8516 438.277L90.4704 206.09" stroke="white" stroke-width="2" stroke-miterlimit="10"/>
<path d="M90.4704 222.218C99.3786 222.218 106.6 214.997 106.6 206.09C106.6 197.182 99.3786 189.961 90.4704 189.961C81.5623 189.961 74.3408 197.182 74.3408 206.09C74.3408 214.997 81.5623 222.218 90.4704 222.218Z" fill="white"/>
<path d="M89.4468 271.767C89.4468 271.767 87.9151 222.18 40.5942 227.204Z" fill="white"/>
<path d="M86.9207 433.844C86.9207 433.844 98.7736 338.721 38.9425 333.179" stroke="white" stroke-width="2" stroke-miterlimit="10"/>
<path d="M38.9425 349.308C47.8507 349.308 55.0722 342.087 55.0722 333.179C55.0722 324.272 47.8507 317.051 38.9425 317.051C30.0344 317.051 22.8129 324.272 22.8129 333.179C22.8129 342.087 30.0344 349.308 38.9425 349.308Z" fill="white"/>
<path d="M225.632 129.449C260.359 129.449 288.511 101.299 288.511 66.5738C288.511 31.8489 260.359 3.69888 225.632 3.69888C190.905 3.69888 162.754 31.8489 162.754 66.5738C162.754 101.299 190.905 129.449 225.632 129.449Z" fill="#287006"/>
<path d="M225.672 447.231V66.8048" stroke="white" stroke-width="2" stroke-miterlimit="10"/>
<path d="M225.672 82.7532C234.58 82.7532 241.801 75.5322 241.801 66.6246C241.801 57.7169 234.58 50.4959 225.672 50.4959C216.764 50.4959 209.542 57.7169 209.542 66.6246C209.542 75.5322 216.764 82.7532 225.672 82.7532Z" fill="white"/>
<path d="M176.131 357.994C185.039 357.994 192.26 350.772 192.26 341.865C192.26 332.957 185.039 325.736 176.131 325.736C167.223 325.736 160.001 332.957 160.001 341.865C160.001 350.772 167.223 357.994 176.131 357.994Z" fill="white"/>
<path d="M225.672 149.011C225.672 149.011 223.368 99.4544 176.131 105.215Z" fill="white"/>
<path d="M225.672 289.497C225.672 289.497 223.368 239.941 176.131 245.701Z" fill="white"/>
<path d="M225.672 442.798C225.672 442.798 236.041 346.473 176.131 341.865" stroke="white" stroke-width="2" stroke-miterlimit="10"/>
<path d="M276.202 206.701C285.111 206.701 292.332 199.48 292.332 190.572C292.332 181.664 285.111 174.443 276.202 174.443C267.294 174.443 260.073 181.664 260.073 190.572C260.073 199.48 267.294 206.701 276.202 206.701Z" fill="white"/>
<path d="M226.661 286.367C226.661 286.367 216.292 195.18 276.202 190.572" stroke="white" stroke-width="2" stroke-miterlimit="10"/>
<path d="M226.554 634.034C336.662 634.034 425.922 544.779 425.922 434.678H27.186C27.186 544.779 116.446 634.034 226.554 634.034Z" fill="#875C49"/>
</g>
<defs>
<clipPath id="clip0">
<rect width="454" height="651" fill="white"/>
</clipPath>
</defs>
</svg>
