<svg width="454" height="651" viewBox="0 0 454 651" fill="none" xmlns="http://www.w3.org/2000/svg">
<g clip-path="url(#clip0)">
<path d="M353.25 568.098L353.765 454.047" stroke="white" stroke-width="2" stroke-miterlimit="10"/>
<path d="M353.765 470.175C362.673 470.175 369.895 462.954 369.895 454.047C369.895 445.139 362.673 437.918 353.765 437.918C344.857 437.918 337.636 445.139 337.636 454.047C337.636 462.954 344.857 470.175 353.765 470.175Z" fill="white"/>
<path d="M353.448 524.339C353.448 524.339 351.367 474.773 304.105 480.32Z" fill="white"/>
<path d="M90.4704 516.218C99.3786 516.218 106.6 508.997 106.6 500.09C106.6 491.182 99.3786 483.961 90.4704 483.961C81.5623 483.961 74.3408 491.182 74.3408 500.09C74.3408 508.997 81.5623 516.218 90.4704 516.218Z" fill="white"/>
<path d="M86.9207 555.844C86.9207 555.844 98.7736 460.721 38.9425 455.179" stroke="white" stroke-width="2" stroke-miterlimit="10"/>
<path d="M225.632 423.449C260.359 423.449 288.511 395.299 288.511 360.574C288.511 325.849 260.359 297.699 225.632 297.699C190.905 297.699 162.754 325.849 162.754 360.574C162.754 395.299 190.905 423.449 225.632 423.449Z" fill="#287006"/>
<path d="M226 615L226 361" stroke="white" stroke-width="2" stroke-miterlimit="10"/>
<path d="M225.672 376.753C234.58 376.753 241.801 369.532 241.801 360.625C241.801 351.717 234.58 344.496 225.672 344.496C216.764 344.496 209.542 351.717 209.542 360.625C209.542 369.532 216.764 376.753 225.672 376.753Z" fill="white"/>
<path d="M176.131 479.994C185.039 479.994 192.26 472.772 192.26 463.865C192.26 454.957 185.039 447.736 176.131 447.736C167.223 447.736 160.001 454.957 160.001 463.865C160.001 472.772 167.223 479.994 176.131 479.994Z" fill="white"/>
<path d="M225.672 443.011C225.672 443.011 223.368 393.454 176.131 399.215Z" fill="white"/>
<path d="M225.672 583.497C225.672 583.497 223.368 533.941 176.131 539.701Z" fill="white"/>
<path d="M225.672 564.798C225.672 564.798 236.041 468.473 176.131 463.865" stroke="white" stroke-width="2" stroke-miterlimit="10"/>
<path d="M276.202 500.701C285.111 500.701 292.332 493.48 292.332 484.572C292.332 475.664 285.111 468.443 276.202 468.443C267.294 468.443 260.073 475.664 260.073 484.572C260.073 493.48 267.294 500.701 276.202 500.701Z" fill="white"/>
<path d="M226.661 580.367C226.661 580.367 216.292 489.18 276.202 484.572" stroke="white" stroke-width="2" stroke-miterlimit="10"/>
<path d="M226.554 634.034C336.662 634.034 425.922 544.779 425.922 434.678H27.186C27.186 544.779 116.446 634.034 226.554 634.034Z" fill="#875C49"/>
</g>
<defs>
<clipPath id="clip0">
<rect width="454" height="651" fill="white"/>
</clipPath>
</defs>
</svg>
