<svg width="454" height="651" viewBox="0 0 454 651" fill="none" xmlns="http://www.w3.org/2000/svg">
<g clip-path="url(#clip0)">
<path d="M353.25 568.098L353.765 454.047" stroke="white" stroke-width="2" stroke-miterlimit="10"/>
<path d="M353.765 470.175C362.673 470.175 369.895 462.954 369.895 454.047C369.895 445.139 362.673 437.918 353.765 437.918C344.857 437.918 337.636 445.139 337.636 454.047C337.636 462.954 344.857 470.175 353.765 470.175Z" fill="white"/>
<path d="M353.448 524.339C353.448 524.339 351.367 474.773 304.105 480.32Z" fill="white"/>
<path d="M90.412 391.034C125.139 391.034 153.291 362.884 153.291 328.159C153.291 293.434 125.139 265.284 90.412 265.284C55.685 265.284 27.5331 293.434 27.5331 328.159C27.5331 362.884 55.685 391.034 90.412 391.034Z" fill="#FFDA18"/>
<path d="M86.8516 560.277L90.4704 328.09" stroke="white" stroke-width="2" stroke-miterlimit="10"/>
<path d="M90.4704 344.218C99.3786 344.218 106.6 336.997 106.6 328.09C106.6 319.182 99.3786 311.961 90.4704 311.961C81.5623 311.961 74.3408 319.182 74.3408 328.09C74.3408 336.997 81.5623 344.218 90.4704 344.218Z" fill="white"/>
<path d="M89.4468 393.767C89.4468 393.767 87.9151 344.18 40.5942 349.204Z" fill="white"/>
<path d="M86.9207 555.844C86.9207 555.844 98.7736 460.721 38.9425 455.179" stroke="white" stroke-width="2" stroke-miterlimit="10"/>
<path d="M225.632 251.449C260.359 251.449 288.511 223.299 288.511 188.574C288.511 153.849 260.359 125.699 225.632 125.699C190.905 125.699 162.754 153.849 162.754 188.574C162.754 223.299 190.905 251.449 225.632 251.449Z" fill="#287006"/>
<path d="M225.672 569.231V188.805" stroke="white" stroke-width="2" stroke-miterlimit="10"/>
<path d="M225.672 204.753C234.58 204.753 241.801 197.532 241.801 188.625C241.801 179.717 234.58 172.496 225.672 172.496C216.764 172.496 209.542 179.717 209.542 188.625C209.542 197.532 216.764 204.753 225.672 204.753Z" fill="white"/>
<path d="M176.131 479.994C185.039 479.994 192.26 472.772 192.26 463.865C192.26 454.957 185.039 447.736 176.131 447.736C167.223 447.736 160.001 454.957 160.001 463.865C160.001 472.772 167.223 479.994 176.131 479.994Z" fill="white"/>
<path d="M225.672 271.011C225.672 271.011 223.368 221.454 176.131 227.215Z" fill="white"/>
<path d="M225.672 411.497C225.672 411.497 223.368 361.941 176.131 367.701Z" fill="white"/>
<path d="M225.672 564.798C225.672 564.798 236.041 468.473 176.131 463.865" stroke="white" stroke-width="2" stroke-miterlimit="10"/>
<path d="M276.202 328.701C285.111 328.701 292.332 321.48 292.332 312.572C292.332 303.664 285.111 296.443 276.202 296.443C267.294 296.443 260.073 303.664 260.073 312.572C260.073 321.48 267.294 328.701 276.202 328.701Z" fill="white"/>
<path d="M226.661 408.367C226.661 408.367 216.292 317.18 276.202 312.572" stroke="white" stroke-width="2" stroke-miterlimit="10"/>
<path d="M226.554 634.034C336.662 634.034 425.922 544.779 425.922 434.678H27.186C27.186 544.779 116.446 634.034 226.554 634.034Z" fill="#875C49"/>
</g>
<defs>
<clipPath id="clip0">
<rect width="454" height="651" fill="white"/>
</clipPath>
</defs>
</svg>
